<?xml version="1.0" encoding="UTF-8" standalone="no"?>
<!-- Created with Inkscape (http://www.inkscape.org/) -->

<svg
   width="210mm"
   height="297mm"
   viewBox="0 0 210 297"
   version="1.1"
   id="svg4488"
   inkscape:version="1.2.2 (b0a8486541, 2022-12-01)"
   sodipodi:docname="keychain-logos.svg"
   xml:space="preserve"
   xmlns:inkscape="http://www.inkscape.org/namespaces/inkscape"
   xmlns:sodipodi="http://sodipodi.sourceforge.net/DTD/sodipodi-0.dtd"
   xmlns:xlink="http://www.w3.org/1999/xlink"
   xmlns="http://www.w3.org/2000/svg"
   xmlns:svg="http://www.w3.org/2000/svg"><sodipodi:namedview
     id="namedview4490"
     pagecolor="#505050"
     bordercolor="#ffffff"
     borderopacity="1"
     inkscape:showpageshadow="0"
     inkscape:pageopacity="0"
     inkscape:pagecheckerboard="1"
     inkscape:deskcolor="#505050"
     inkscape:document-units="mm"
     showgrid="false"
     inkscape:zoom="0.87397119"
     inkscape:cx="529.76574"
     inkscape:cy="551.50559"
     inkscape:window-width="1920"
     inkscape:window-height="1009"
     inkscape:window-x="0"
     inkscape:window-y="0"
     inkscape:window-maximized="1"
     inkscape:current-layer="layer1" /><defs
     id="defs4485"><radialGradient
       inkscape:collect="always"
       xlink:href="#linearGradient3237"
       id="radialGradient5292"
       gradientUnits="userSpaceOnUse"
       gradientTransform="matrix(0.10928207,0.03961561,-0.03613958,0.09969326,45.039337,28.028975)"
       cx="101.05195"
       cy="211.00792"
       fx="101.05195"
       fy="211.00792"
       r="200" /><linearGradient
       id="linearGradient3237"><stop
         id="stop3239"
         offset="0"
         style="stop-color:#d5e6ff;stop-opacity:1;" /><stop
         id="stop3241"
         offset="1"
         style="stop-color:#ffffff;stop-opacity:0;" /></linearGradient></defs><g
     inkscape:label="Layer 1"
     inkscape:groupmode="layer"
     id="layer1"><g
       id="g6044"
       transform="matrix(1.1764706,0,0,1.1764706,-5.3882725,-4.9577349)"
       inkscape:export-filename="../../../../logo-side1.png"
       inkscape:export-xdpi="508"
       inkscape:export-ydpi="508"><g
         id="g4867"
         transform="matrix(0.98972979,0,0,0.9888702,1.4512602,0.45783993)"><circle
           style="fill:#ffe7d8;fill-opacity:0.975904;stroke-width:0.252161"
           id="path7096"
           cx="69.975967"
           cy="71.036263"
           r="42.867455" /><path
           class="st0"
           d="m 50.99151,33.444642 c -0.01805,-0.476607 -0.824389,-0.0876 -1.038215,0.0052 -0.566763,0.24729 -1.110345,0.548706 -1.643618,0.860428 -1.398883,0.819258 -2.735937,1.749274 -3.96994,2.800358 -2.64577,2.251588 -4.961782,5.209098 -5.626444,8.697269 -0.25762,1.357686 -0.327179,3.034795 0.394158,4.279112 0.345212,0.592521 0.873339,1.079402 1.599829,1.061394 0.873334,-0.0232 1.635892,-0.744548 2.171743,-1.367962 0.886219,-1.027922 1.576644,-2.220693 2.205238,-3.418652 0.757407,-1.440093 1.442675,-2.916272 2.122797,-4.394994 0.765135,-1.659099 1.517388,-3.323322 2.295403,-4.97469 0.283382,-0.602829 0.574495,-1.203079 0.855303,-1.808485 0.12881,-0.283374 0.25762,-0.56678 0.378701,-0.855308 0.110778,-0.26791 0.265348,-0.584788 0.255045,-0.883624 -0.0026,-0.07213 0.0052,0.170003 0,0 z"
           id="path4037"
           style="clip-rule:evenodd;opacity:0.5;fill:#fffff3;fill-rule:evenodd;stroke-width:0.257621" /><path
           class="st1"
           d="m 57.398546,30.278468 c 0.0052,-0.04894 -0.301419,0.100484 -0.303996,0.103061 -0.211248,0.100449 -0.422494,0.203509 -0.633746,0.30399 -0.419922,0.200933 -0.837268,0.401865 -1.257191,0.602829 -0.672391,0.322033 -1.344779,0.644033 -2.017173,0.966066 -0.919707,0.440526 -1.839415,0.881081 -2.756543,1.326758 -0.968658,0.471453 -1.934733,0.950635 -2.880203,1.468445 -2.753969,1.512226 -5.373976,3.310438 -7.509653,5.634157 -2.303132,2.506676 -3.972515,5.636765 -4.387287,9.042498 -0.200945,1.661676 -0.103047,3.364526 0.355518,4.977235 0.455989,1.607553 1.300986,3.27954 2.712749,4.250762 1.151568,0.796028 2.537569,0.829535 3.727776,0.113337 0.703307,-0.422484 1.293259,-1.020157 1.805924,-1.65649 1.391153,-1.726047 2.357231,-3.792199 3.246025,-5.806771 1.130956,-2.560767 2.122797,-5.18078 3.15586,-7.780171 0.973804,-2.449975 1.973373,-4.894797 3.117212,-7.272639 0.546158,-1.136102 1.125805,-2.256742 1.756976,-3.346487 0.311722,-0.541004 0.638897,-1.074279 0.978958,-1.597244 0.146847,-0.226706 0.298842,-0.448255 0.455989,-0.667261 0.121081,-0.167428 0.419922,-0.458565 0.432805,-0.654344 0,-0.0032 0,-0.0052 0,-0.0077 0.0052,-0.04636 0,0.0032 0,0 z"
           id="path4039"
           style="clip-rule:evenodd;opacity:0.5;fill:#e31c23;fill-rule:evenodd;stroke-width:0.257621" /><path
           class="st1"
           d="m 62.924517,28.977483 c 0,-0.0052 -0.886219,0.368392 -0.942893,0.394166 -0.721339,0.33234 -1.440101,0.662074 -2.158868,0.994415 -2.078998,0.955757 -4.155424,1.911546 -6.234427,2.86988 -1.888363,0.868193 -3.774149,1.736386 -5.662509,2.604547 -5.224553,2.401039 -10.317721,5.976808 -12.863018,11.299272 -1.414338,2.957478 -1.939888,6.303994 -1.393729,9.542267 0.548732,3.251192 2.200084,6.690429 5.054525,8.514379 1.501932,0.960943 3.367106,1.246894 5.003001,0.435401 0.940316,-0.466297 1.72606,-1.179918 2.401025,-1.9734 1.450406,-1.710582 2.483467,-3.768971 3.405751,-5.796463 2.46801,-5.420336 4.250746,-11.129235 6.481744,-16.647477 0.888791,-2.197497 1.836841,-4.37183 2.913695,-6.484308 0.53585,-1.048507 1.100042,-2.08416 1.728639,-3.078578 0.334905,-0.528119 0.682694,-1.048506 1.071703,-1.540576 0.188061,-0.239591 0.466294,-0.386432 0.700725,-0.579633 0.11851,-0.09533 0.52555,-0.386432 0.494636,-0.553892 0,-0.0412 0.0052,0.03608 0,0 z"
           id="path4041"
           style="clip-rule:evenodd;opacity:0.5;fill:#e31c23;fill-rule:evenodd;stroke-width:0.257621" /><path
           class="st1"
           d="m 68.303642,28.495722 c 0,-0.193199 -0.731645,0.193233 -0.793473,0.221551 -0.466293,0.200964 -0.932587,0.404474 -1.398881,0.605406 -0.837268,0.363271 -1.67454,0.726507 -2.514383,1.089745 -1.458134,0.633757 -2.918843,1.264933 -4.376981,1.898658 -2.148556,0.930016 -4.294539,1.862611 -6.443098,2.792627 -1.981108,0.857885 -3.967364,1.708036 -5.94332,2.581352 -4.114207,1.81625 -8.032623,4.291967 -10.938586,7.769862 -2.151137,2.573621 -3.635034,5.693434 -4.075568,9.02961 -0.409615,3.114659 0.09274,6.314305 1.375698,9.176454 2.068698,4.616574 7.563753,10.289391 13.038201,7.192806 2.475738,-1.401469 4.101328,-4.057531 5.397159,-6.510083 1.272646,-2.40877 2.32374,-4.930876 3.336192,-7.455559 2.372691,-5.927873 4.45942,-11.969081 7.002137,-17.829972 0.826968,-1.908969 1.705454,-3.797321 2.679261,-5.634156 0.288536,-0.546161 0.587375,-1.087168 0.901673,-1.620441 0.309147,-0.525542 0.605409,-1.19535 1.107774,-1.550887 0.368397,-0.260178 0.72649,-0.541007 1.043363,-0.863007 0.200943,-0.206119 0.623443,-0.584819 0.602832,-0.893966 0,-0.164881 0.01032,0.172614 0,0 z"
           id="path4043"
           style="clip-rule:evenodd;opacity:0.5;fill:#e31c23;fill-rule:evenodd;stroke-width:0.257621" /><path
           class="st1"
           d="m 73.950694,28.596205 c 0.0026,0.01545 -2.174319,0.852728 -2.382994,0.937747 -0.8553,0.342619 -1.710602,0.685271 -2.565905,1.02789 -1.525116,0.610561 -3.050233,1.221121 -4.575347,1.831682 -2.375268,0.950634 -4.750533,1.901269 -7.128375,2.849295 -2.622582,1.048538 -5.24774,2.094468 -7.870322,3.140398 -0.868183,0.345228 -1.736368,0.68527 -2.599396,1.040807 -1.950188,0.803762 -3.846283,1.746665 -5.647053,2.846718 -2.748814,1.679686 -5.28896,3.761237 -7.257184,6.324581 -2.117646,2.756543 -3.516524,6.061824 -3.768995,9.544844 -0.443111,6.095331 2.519534,12.278225 7.401451,15.92358 2.486041,1.854846 5.639324,3.148132 8.77715,2.493756 3.395446,-0.708467 5.835113,-3.48044 7.679682,-6.239563 1.88836,-2.820977 3.372257,-5.912405 4.771141,-8.998714 1.004721,-2.215539 1.945037,-4.456848 2.882779,-6.700737 2.220692,-5.309547 4.387283,-10.647474 6.757397,-15.892621 0.865608,-1.9167 1.759556,-3.825669 2.730786,-5.693434 0.399311,-0.76771 0.811506,-1.527691 1.246883,-2.272205 0.182912,-0.311724 0.350364,-0.687847 0.613137,-0.940326 0.195795,-0.188076 0.381281,-0.394166 0.553887,-0.605406 0.07729,-0.09533 0.437957,-0.476605 0.381278,-0.618292 -0.0077,-0.02835 0,0.0052 0,0 z"
           id="path4045"
           style="clip-rule:evenodd;opacity:0.5;fill:#e31c23;fill-rule:evenodd;stroke-width:0.257621" /><path
           class="st1"
           d="m 80.331968,29.796707 c -0.0052,-0.309144 -0.62602,0.19581 -0.68012,0.237016 -0.193217,0.141685 -0.381278,0.293683 -0.569343,0.443101 -0.607984,0.479181 -1.226278,0.94548 -1.867752,1.37827 -1.231427,0.829566 -2.540141,1.532845 -3.897805,2.127975 -2.743663,1.197927 -5.652206,1.960483 -8.558173,2.653485 -6.455981,1.537999 -12.968639,2.880188 -19.07941,5.551747 -5.580071,2.442244 -10.966927,5.984538 -14.236137,11.252879 -1.684843,2.715308 -2.661224,5.845432 -2.681838,9.050229 -0.02061,3.0837 0.837272,6.126226 2.341777,8.810638 1.615284,2.877614 3.939027,5.366248 6.690418,7.187621 2.849288,1.885773 6.311715,3.135244 9.766414,2.743658 3.395446,-0.386435 6.208665,-2.380422 8.48346,-4.822664 2.06612,-2.215539 3.763843,-4.763418 5.322448,-7.352503 3.006439,-5.000432 5.585224,-10.263619 8.12279,-15.51395 2.83641,-5.87117 5.562042,-11.796464 8.287671,-17.719148 0.458565,-0.996995 0.922284,-1.993987 1.373121,-2.996136 0.231855,-0.515266 0.463714,-1.030497 0.685268,-1.550885 0.177761,-0.427638 0.517822,-1.012457 0.497211,-1.481333 -0.0026,-0.190622 0.0052,0.121102 0,0 z"
           id="path4047"
           style="clip-rule:evenodd;opacity:0.5;fill:#e31c23;fill-rule:evenodd;stroke-width:0.257621" /><path
           class="st1"
           d="m 87.223329,32.117883 c -0.602832,-0.252478 -1.409187,0.113369 -1.973376,0.337495 -0.615715,0.247293 -1.215972,0.535853 -1.813653,0.826958 -1.535419,0.747093 -3.06569,1.499341 -4.644909,2.145982 -2.808065,1.151567 -5.719183,2.012029 -8.666368,2.730773 -6.350357,1.54573 -12.78573,2.715339 -18.97121,4.869053 -5.845423,2.032613 -11.631591,4.809775 -16.21982,9.03992 -2.424216,2.233578 -4.518671,4.905103 -5.804202,7.955331 -1.200515,2.846715 -1.661657,5.969074 -1.17475,9.029609 0.942893,5.899521 5.103471,10.853563 10.199214,13.754402 3.130095,1.780138 6.741943,2.877613 10.366668,2.715307 3.640185,-0.162306 6.968652,-1.692573 9.812788,-3.90811 4.036919,-3.145554 7.236573,-7.316419 10.186333,-11.456389 3.22284,-4.526404 6.164871,-9.25635 8.934297,-14.073857 2.524686,-4.392416 4.920562,-8.869883 7.06139,-13.460687 0.718765,-1.540576 1.40919,-3.09404 2.022327,-4.6784 0.234434,-0.602829 0.458565,-1.213389 0.656934,-1.829104 0.229283,-0.711044 0.437957,-1.437518 0.541001,-2.179487 0.07987,-0.592521 0.164881,-1.532847 -0.512664,-1.818796 -0.365821,-0.154575 0.448262,0.188077 0,0 z"
           id="path4049"
           style="clip-rule:evenodd;opacity:0.5;fill:#e31c23;fill-rule:evenodd;stroke-width:0.257621" /><path
           class="st2"
           d="m 101.12456,93.975267 c -0.0284,-0.808947 -0.14427,-1.61013 -0.50236,-2.34437 -0.33748,-0.695547 -1.022758,-1.308684 -1.847144,-1.156689 -1.385999,0.255024 -2.367537,1.726046 -3.073419,2.828676 -1.24946,1.950175 -2.21039,4.088426 -3.176468,6.188049 -0.70588,1.535417 -1.404033,3.075997 -2.122797,4.606267 -0.528122,1.12322 -1.118074,2.23358 -1.558605,3.39545 -0.07986,0.20867 -0.198369,0.47658 -0.164881,0.70586 0.05153,0.34781 0.595109,0.12368 0.785747,0.0516 1.205664,-0.45341 2.334045,-1.19538 3.39802,-1.90897 2.104765,-1.41178 4.036922,-3.07858 5.569767,-5.10607 1.556033,-2.060966 2.73078,-4.637163 2.69214,-7.259753 -0.0206,-0.577088 0,0.03605 0,0 z"
           id="path4051"
           style="opacity:0.85;fill:#acf2ff;stroke-width:0.257621" /><path
           class="st1"
           d="m 95.874243,39.37248 c -0.01032,-0.79603 -0.131384,-1.622986 -0.579646,-2.29798 -0.394163,-0.589941 -1.009875,-0.971219 -1.68742,-1.14899 -1.329322,-0.347774 -2.792608,-0.09272 -4.109056,0.180348 -1.811073,0.378701 -3.583506,0.932593 -5.353362,1.471022 -1.816227,0.551315 -3.637608,1.082011 -5.469292,1.574049 -6.582219,1.75955 -13.285518,3.050225 -19.82394,4.979813 -6.458559,1.903814 -12.82695,4.472313 -18.453394,8.218117 -5.175607,3.444393 -10.080709,8.112482 -12.110765,14.140836 -0.899094,2.676678 -1.125802,5.562023 -0.499782,8.326299 0.607984,2.681833 1.981105,5.136963 3.812792,7.174733 4.467148,4.969505 11.448676,7.697729 18.082418,7.496765 7.300979,-0.221551 13.574048,-4.330594 18.878468,-9.024456 4.907679,-4.340902 9.282083,-9.310407 13.288089,-14.48603 3.825674,-4.938577 7.404028,-10.139942 10.315146,-15.6788 1.030486,-1.960515 1.981108,-3.97509 2.710175,-6.069558 0.535853,-1.550887 0.999569,-3.199646 0.999569,-4.856168 -0.01289,-0.955757 0,7.40147 0,0 z"
           id="path4053"
           style="clip-rule:evenodd;opacity:0.5;fill:#e31c23;fill-rule:evenodd;stroke-width:0.257621" /><path
           class="st3"
           d="m 104.06402,89.14745 c -0.13397,-1.713191 -0.6389,-3.470164 -1.60241,-4.90768 -0.8553,-1.272635 -2.20266,-2.411349 -3.833398,-2.220693 -2.068698,0.242168 -3.503647,2.367534 -4.469725,3.995706 -1.581791,2.671524 -2.710172,5.605838 -3.854011,8.483452 -1.357662,3.418617 -2.679256,6.857885 -4.250746,10.186335 -0.932587,1.97594 -1.945036,3.9313 -3.186771,5.73206 -0.123658,0.17776 -0.247317,0.35554 -0.373552,0.53069 -0.06441,0.0902 -0.355515,0.47403 -0.105624,0.35812 0.620866,-0.29111 1.236583,-0.59255 1.854872,-0.88881 5.167878,-2.48345 10.652627,-4.73249 14.76426,-8.85958 3.271785,-3.27693 5.430645,-7.702883 5.057105,-12.4096 -0.0232,-0.322033 0.11077,1.378272 0,0 z"
           id="path4055"
           style="opacity:0.5;fill:#00853e;stroke-width:0.257621" /><path
           class="st3"
           d="m 106.17908,86.478502 c -0.23186,-3.279539 -1.47101,-6.651768 -3.86174,-8.978095 -1.14641,-1.115518 -2.648339,-2.019761 -4.29196,-2.019761 -1.651352,0 -3.060539,0.917128 -4.158004,2.08416 -1.733788,1.84199 -2.86217,4.224989 -3.884925,6.512658 -0.692999,1.550887 -1.316445,3.13009 -1.973376,4.696441 -1.501931,3.586078 -3.021896,7.179887 -4.747958,10.665516 -1.574062,3.176449 -3.148126,6.352929 -4.722194,9.531959 -0.559035,1.13094 -1.120648,2.25935 -1.679686,3.3903 -0.03349,0.067 -0.0644,0.13137 -0.0979,0.19835 -0.100473,0.20354 0.407043,-0.19835 0.455991,-0.24729 0.249891,-0.23959 0.443108,-0.56936 0.734218,-0.75485 0.999572,-0.63888 2.084155,-1.13353 3.176469,-1.58952 2.769425,-1.15672 5.626441,-2.08674 8.398446,-3.23573 3.158435,-1.30868 6.239582,-2.86472 8.954905,-4.96435 2.331474,-1.803327 4.358944,-3.993125 5.765564,-6.597672 1.42722,-2.643177 2.14598,-5.688248 1.93215,-8.692116 -0.0644,-0.914551 0.11593,1.61271 0,0 z"
           id="path4057"
           style="opacity:0.5;fill:#00853e;stroke-width:0.257621" /><path
           class="st4"
           d="m 101.54964,42.649443 c -2.354662,-2.452553 -6.309145,-2.534994 -9.46758,-2.323751 -3.377408,0.226703 -6.718755,0.881047 -10.024033,1.58178 -7.383415,1.566349 -14.730769,3.390302 -21.812771,6.0232 -6.360662,2.364954 -12.507499,5.381677 -18.023165,9.356796 -5.16015,3.717457 -10.109049,8.460256 -12.579635,14.437063 -0.978959,2.372688 -1.514811,4.959226 -1.267495,7.53027 0.221554,2.308288 1.08974,4.510939 2.470587,6.370973 3.405748,4.580493 9.300117,6.780567 14.787446,7.440096 3.776723,0.453412 7.630734,0.190625 11.325018,-0.695579 3.410903,-0.816678 6.685267,-2.145982 9.799905,-3.745806 6.427644,-3.300127 12.285945,-7.702884 17.644461,-12.525547 4.660366,-4.194061 8.983245,-8.828678 12.607973,-13.95018 1.805927,-2.550456 3.452129,-5.247722 4.662939,-8.135675 1.11035,-2.653486 2.05324,-5.778421 1.33705,-8.653487 -0.24989,-1.012457 -0.73679,-1.957906 -1.4607,-2.710153 -0.21383,-0.224129 1.85229,1.926979 0,0 z"
           id="path4059"
           style="opacity:0.5;stroke-width:0.257621" /><path
           class="st3"
           d="m 107.95152,83.8121 c -0.19837,-3.282087 -1.44011,-6.540976 -3.41863,-9.160989 -1.97596,-2.614858 -5.142117,-5.142118 -8.625156,-4.73249 -3.413479,0.401896 -5.696003,3.498482 -7.277793,6.262758 -1.58437,2.772008 -2.772005,5.734638 -4.02404,8.666374 -2.21039,5.1859 -4.526404,10.322865 -6.958343,15.408317 -1.872906,3.91584 -3.794757,7.80849 -5.742374,11.68825 -0.03349,0.067 -0.664662,1.17218 -0.502359,1.23143 0.226706,0.0824 0.631169,-0.42506 0.757404,-0.56675 0.265348,-0.2911 0.507511,-0.60541 0.736799,-0.92486 0.20094,-0.28083 0.347784,-0.51011 0.644049,-0.693 0.216402,-0.13396 0.437956,-0.26279 0.662088,-0.38386 2.009444,-1.09747 4.217254,-1.80852 6.394153,-2.49121 5.44353,-1.70543 10.99784,-3.2048 15.975079,-6.07984 2.769425,-1.60239 5.355943,-3.611846 7.375693,-6.110788 2.25933,-2.795172 3.73035,-6.180317 3.99827,-9.781857 0.0593,-0.772867 0.0515,-1.553464 0.005,-2.331485 -0.0721,-1.200504 0.0876,1.411777 0,0 z"
           id="path4061"
           style="opacity:0.5;fill:#00853e;stroke-width:0.257621" /><path
           class="st3"
           d="m 109.44314,80.195127 c -0.40189,-3.374837 -1.80077,-6.607987 -3.89265,-9.276934 -2.11765,-2.705032 -5.06483,-5.046793 -8.473157,-5.817079 -1.705451,-0.386435 -3.490764,-0.28856 -5.118931,0.355504 -1.574062,0.623446 -2.923995,1.708037 -4.065257,2.942045 -1.316442,1.422054 -2.39845,3.045071 -3.379988,4.711872 -1.298411,2.202651 -2.398451,4.516094 -3.462425,6.839845 -1.553459,3.390302 -3.042505,6.811496 -4.572775,10.212106 -2.36496,5.26061 -4.796904,10.487744 -7.295827,15.686534 -0.556461,1.15672 -1.115499,2.31086 -1.677112,3.46501 -0.303993,0.62602 -0.61056,1.24944 -0.91713,1.87546 -0.157152,0.32203 -0.314299,0.64149 -0.474023,0.96352 -0.04122,0.085 -0.381283,0.86043 -0.386432,0.86043 0.180335,-0.005 0.455991,-0.49203 0.551307,-0.62341 0.162304,-0.22928 0.301419,-0.55132 0.507516,-0.74197 0.41992,-0.38644 0.857877,-0.7471 1.326748,-1.07428 1.009872,-0.70844 2.115069,-1.27779 3.248599,-1.75955 2.650921,-1.13095 5.461566,-1.84715 8.243872,-2.56589 6.692995,-1.72866 13.483886,-3.48305 19.380829,-7.231435 2.954916,-1.878041 5.652206,-4.248152 7.586936,-7.185043 1.99915,-3.034795 3.10691,-6.597677 2.97038,-10.245577 -0.0103,-0.466296 -0.0464,-0.930016 -0.10048,-1.391158 -0.45083,-3.776734 0.28854,2.465438 0,0 z"
           id="path4063"
           style="opacity:0.5;fill:#00853e;stroke-width:0.257621" /><path
           class="st4"
           d="m 108.37144,53.948683 c -1.39116,-7.731204 -10.413045,-9.513948 -17.00299,-9.449549 -7.321587,0.07217 -14.630297,1.970823 -21.428916,4.585682 -6.677533,2.565887 -13.076841,5.956189 -18.948024,10.044644 -5.600679,3.897802 -10.894793,8.522078 -14.908527,14.076402 -2.854439,3.949316 -5.536274,8.975519 -4.851006,14.022311 0.255048,1.878041 1.038214,3.642746 2.292829,5.067408 1.396307,1.584359 3.266636,2.676681 5.232281,3.400578 2.571059,0.948058 5.335333,1.313871 8.063539,1.396313 2.496347,0.07471 4.99527,-0.10045 7.468434,-0.443101 5.368821,-0.747093 10.62429,-2.272207 15.671088,-4.235299 5.330176,-2.073849 10.467138,-4.665512 15.315567,-7.697697 4.606264,-2.880223 8.988398,-6.175195 12.878475,-9.975091 3.30528,-3.230573 6.34263,-6.883627 8.3598,-11.067412 1.4298,-2.97294 2.4474,-6.419908 1.85745,-9.725189 -0.0567,-0.319455 0.2602,1.455558 0,0 z"
           id="path4065"
           style="opacity:0.5;stroke-width:0.257621" /><path
           class="st3"
           d="m 110.20828,74.171927 c -0.99185,-3.377414 -2.9781,-6.417331 -5.5234,-8.831222 -2.21039,-2.097048 -4.930863,-3.781888 -7.888355,-4.572794 -3.29497,-0.881049 -6.705872,-0.466297 -9.596382,1.375693 -2.996133,1.911546 -5.258046,4.817509 -7.208234,7.736358 -3.101758,4.64235 -5.618715,9.678832 -8.089302,14.676686 -2.743663,5.549138 -5.361093,11.162707 -7.957912,16.781432 -1.076857,2.33145 -2.158865,4.65778 -3.222839,6.99442 -0.273077,0.59767 -0.541005,1.19535 -0.803778,1.79818 -0.131387,0.30141 -0.260197,0.6054 -0.376127,0.91455 -0.07986,0.21382 -0.247316,0.54358 -0.206097,0.78317 0.04637,0.26021 0.577072,-0.1855 0.677545,-0.26021 0.267925,-0.20351 0.533276,-0.41475 0.801201,-0.62344 0.690425,-0.53586 1.396307,-1.05624 2.135677,-1.52512 5.16015,-3.2692 11.368817,-4.31771 17.221964,-5.67281 6.98926,-1.61787 14.040345,-3.69942 20.081559,-7.692547 5.62129,-3.714909 10.35379,-9.390303 10.6449,-16.387265 0.0747,-1.852303 -0.16487,-3.714911 -0.69042,-5.495081 -0.66209,-2.251585 1.56376,5.299271 0,0 z"
           id="path4067"
           style="opacity:0.5;fill:#00853e;stroke-width:0.257621" /><path
           class="st4"
           d="m 111.31862,62.604746 c -0.2164,-2.612279 -1.22885,-5.082839 -2.88793,-7.110333 -1.66165,-2.032614 -3.86689,-3.570613 -6.22928,-4.680976 -5.608402,-2.638052 -12.167436,-3.073421 -18.195766,-1.865186 -6.66981,1.337067 -12.821798,4.61142 -18.407023,8.401039 -5.500206,3.732922 -10.619139,8.086709 -15.227977,12.875901 -4.338339,4.508362 -8.437089,9.488175 -11.312139,15.073394 -1.357664,2.638054 -2.537568,5.574911 -2.635461,8.578778 -0.05668,1.749243 0.345212,3.544875 1.522537,4.889641 1.125804,1.288136 2.777156,1.957936 4.423354,2.282546 3.26921,0.64403 6.723909,0.18547 9.972511,-0.34523 3.297547,-0.53842 6.56676,-1.264899 9.82051,-2.014604 6.759977,-1.561161 13.465852,-3.441814 19.9038,-6.043784 6.363239,-2.571041 12.463705,-5.871171 17.81707,-10.188909 2.759124,-2.223269 5.304414,-4.765995 7.370534,-7.653916 2.07385,-2.89823 3.69687,-6.247294 4.04465,-9.830827 0.0721,-0.790874 0.085,-1.581782 0.0206,-2.367534 -0.76771,-9.246007 0.25762,3.137824 0,0 z"
           id="path4069"
           style="opacity:0.5;stroke-width:0.257621" /><path
           class="st3"
           d="m 93.251662,56.125593 c -2.965218,-0.249902 -5.912403,0.342619 -8.560745,1.695151 -2.661227,1.357653 -4.946324,3.351641 -6.999565,5.5002 -4.498062,4.706718 -8.151127,10.209527 -11.585215,15.717462 -2.931729,4.704138 -5.672815,9.524256 -8.223263,14.444792 -1.285531,2.480902 -2.532417,4.984969 -3.660796,7.543152 -0.504939,1.14384 -0.989267,2.29799 -1.411764,3.47275 -0.376124,1.04593 -0.736793,2.12536 -0.881065,3.23311 -0.08244,0.63891 -0.123656,1.65137 0.695579,1.80337 0.386429,0.0721 0.798623,-0.0387 1.167021,-0.15715 1.329325,-0.4251 2.576211,-1.12837 3.828251,-1.73378 2.983251,-1.44013 6.046364,-2.61486 9.238287,-3.50625 3.070844,-0.85788 6.19321,-1.50449 9.302697,-2.20007 3.529407,-0.78833 7.043359,-1.65133 10.495478,-2.743657 5.976808,-1.888381 11.889211,-4.516093 16.763398,-8.52211 4.78145,-3.931306 8.61227,-9.542298 8.48089,-15.946741 -0.11336,-5.562026 -3.23057,-10.60627 -7.51223,-13.99654 -3.17132,-2.514407 -7.079428,-4.263647 -11.136958,-4.603689 -7.504499,-0.63118 11.082848,0.927438 0,0 z"
           id="path4071"
           style="opacity:0.5;fill:#00853e;stroke-width:0.257621" /><path
           class="st4"
           d="m 89.96184,52.114422 c -3.418631,0.121102 -6.703295,1.048509 -9.750954,2.59424 -3.021893,1.532845 -5.762982,3.56807 -8.328887,5.768144 -5.265775,4.513516 -9.882344,9.769004 -14.130512,15.2357 -2.220693,2.857026 -4.322882,5.804191 -6.275647,8.846719 -1.718334,2.674102 -3.354228,5.412605 -4.745381,8.272209 -1.084585,2.231001 -2.09446,4.541866 -2.638039,6.971223 -0.365821,1.638453 -0.698153,3.993133 0.731645,5.242563 1.105191,0.9661 2.784882,0.85531 4.145121,0.66469 1.342207,-0.18808 2.658649,-0.54358 3.959635,-0.91455 1.65908,-0.47403 3.305278,-0.99184 4.959204,-1.48134 3.552592,-1.0485 7.146407,-1.927 10.750524,-2.76685 7.012445,-1.628171 14.019736,-3.297547 20.686968,-6.072131 5.98196,-2.488602 11.827383,-5.809348 16.374393,-10.485171 4.31773,-4.443962 7.51223,-10.526373 6.23958,-16.863872 -1.01502,-5.051946 -4.67067,-9.114631 -9.02446,-11.66251 -3.882355,-2.272205 -8.447396,-3.50879 -12.95319,-3.349064 -3.54744,0.126225 11.5878,-0.41475 0,0 z"
           id="path4073"
           style="opacity:0.5;stroke-width:0.257621" /><path
           class="st6"
           d="m 77.851078,66.082644 v 2.254162 H 67.456067 v 6.932597 H 79.239654 V 77.5236 H 64.792269 V 57.5528 H 78.927935 V 59.807 H 67.456067 v 6.275644 z"
           id="path4075"
           style="opacity:0.2;fill:#ffffff;stroke-width:0.257621" /><path
           class="st6"
           d="m 91.808984,57.5528 h 2.908541 L 87.797824,77.505561 H 84.634238 L 77.714537,57.5528 h 2.908541 l 5.592956,17.188484 z"
           id="path4079"
           style="opacity:0.2;fill:#ffffff;stroke-width:0.257621" /><path
           class="st7"
           d="m 56.375789,57.586307 c 2.050666,0 9.488183,0.226705 9.488183,9.915813 0,9.802476 -7.094884,10.031759 -10.485176,10.031759 H 49.051625 V 57.586307 Z m -4.644906,17.695984 h 3.732927 c 5.129236,0 7.550872,-2.393307 7.550872,-7.723471 0,-6.041239 -3.390292,-7.723505 -6.78316,-7.723505 h -4.503214 v 15.446976 z"
           id="path4083"
           style="opacity:0.2;fill:#ffffff;stroke:#ffffff;stroke-width:0.257621;stroke-miterlimit:10" /><path
           class="st6"
           d="m 93.256813,53.410253 c 0.723913,0 1.203092,0.283374 1.203092,1.020191 0,0.664649 -0.329755,1.115484 -1.246886,1.115484 h -0.922284 v 1.414354 h -0.4766 v -3.550029 z m -0.966078,1.73381 h 0.873336 c 0.566764,0 0.811504,-0.239591 0.811504,-0.705888 0,-0.440523 -0.262774,-0.628602 -0.811504,-0.628602 h -0.873336 z"
           id="path4087"
           style="opacity:0.2;fill:#ffffff;stroke-width:0.257621" /><path
           class="st6"
           d="m 96.544057,53.30465 c 0.785744,0 1.692571,0.435369 1.692571,1.880619 0,1.854877 -1.476168,1.880618 -1.692571,1.880618 -0.234434,0 -1.692569,-0.02577 -1.692569,-1.880618 -0.0026,-1.24174 0.703305,-1.880619 1.692569,-1.880619 z m 0,3.361949 c 0.242163,0 1.187633,-0.05155 1.187633,-1.48133 0,-0.837266 -0.370975,-1.481334 -1.187633,-1.481334 -1.084582,0 -1.187632,1.094899 -1.187632,1.481334 0,0.571931 0.172606,1.48133 1.187632,1.48133 z"
           id="path4089"
           style="opacity:0.2;fill:#ffffff;stroke-width:0.257621" /><path
           class="st6"
           d="m 100.38776,53.30465 c 0.78575,0 1.69257,0.435369 1.69257,1.880619 0,1.854877 -1.47616,1.880618 -1.69257,1.880618 -0.23443,0 -1.692566,-0.02577 -1.692566,-1.880618 -0.0026,-1.24174 0.703307,-1.880619 1.692566,-1.880619 z m 0,3.361949 c 0.24217,0 1.18764,-0.05155 1.18764,-1.48133 0,-0.837266 -0.37098,-1.481334 -1.18764,-1.481334 -1.08458,0 -1.18763,1.094899 -1.18763,1.481334 0,0.571931 0.172606,1.48133 1.18763,1.48133 z"
           id="path4091"
           style="opacity:0.2;fill:#ffffff;stroke-width:0.257621" /><path
           class="st6"
           d="m 105.02237,56.960282 h -2.28253 v -3.550029 h 0.4766 v 3.148132 h 1.80593 z"
           id="path4093"
           style="opacity:0.2;fill:#ffffff;stroke-width:0.257621" /><path
           class="st6"
           d="m 77.227633,65.495277 v 2.254165 H 66.832627 v 6.932597 h 11.783584 v 2.254165 H 64.168823 V 56.968013 h 14.135666 v 2.254165 H 66.832627 v 6.275644 h 10.395006 z"
           id="path4099"
           style="fill:#ffffff;stroke-width:0.257621" /><path
           class="st6"
           d="m 91.182967,56.965436 h 2.90854 l -6.9197,19.952726 H 84.008221 L 77.08852,56.965436 h 2.908541 l 5.59295,17.188484 z"
           id="path4103"
           style="fill:#ffffff;stroke-width:0.257621" /><path
           class="st7"
           d="m 55.749771,56.998908 c 2.050661,0 9.488181,0.226706 9.488181,9.915845 0,9.802476 -7.094882,10.031759 -10.485176,10.031759 H 48.425607 V 56.998908 Z m -4.644908,17.695984 h 3.732929 c 5.129236,0 7.550872,-2.393273 7.550872,-7.72347 0,-6.041208 -3.390294,-7.723471 -6.78316,-7.723471 h -4.503218 v 15.446941 z"
           id="path4107"
           style="fill:#ffffff;stroke:#ffffff;stroke-width:0.257621;stroke-miterlimit:10" /><path
           class="st6"
           d="m 92.63337,52.822889 c 0.723916,0 1.20309,0.283374 1.20309,1.020188 0,0.664652 -0.329756,1.115486 -1.246884,1.115486 h -0.922284 v 1.414354 h -0.476597 v -3.550028 z m -0.968653,1.733777 h 0.873334 c 0.566767,0 0.811506,-0.23959 0.811506,-0.705889 0,-0.440524 -0.262773,-0.628568 -0.811506,-0.628568 h -0.873334 z"
           id="path4111"
           style="fill:#ffffff;stroke-width:0.257621" /><path
           class="st6"
           d="m 95.91804,52.717251 c 0.785743,0 1.692568,0.435401 1.692568,1.880651 0,1.854845 -1.476168,1.880618 -1.692568,1.880618 -0.234437,0 -1.692569,-0.02577 -1.692569,-1.880618 0,-1.24174 0.705879,-1.880651 1.692569,-1.880651 z m 0,3.36195 c 0.242162,0 1.187632,-0.05151 1.187632,-1.481299 0,-0.837266 -0.370975,-1.481331 -1.187632,-1.481331 -1.084586,0 -1.187633,1.094899 -1.187633,1.481331 0.0026,0.571902 0.175181,1.481299 1.187633,1.481299 z"
           id="path4113"
           style="fill:#ffffff;stroke-width:0.257621" /><path
           class="st6"
           d="m 99.761745,52.717251 c 0.785745,0 1.692565,0.435401 1.692565,1.880651 0,1.854845 -1.476162,1.880618 -1.692565,1.880618 -0.234434,0 -1.692571,-0.02577 -1.692571,-1.880618 0,-1.24174 0.705882,-1.880651 1.692571,-1.880651 z m 0,3.36195 c 0.242165,0 1.187635,-0.05151 1.187635,-1.481299 0,-0.837266 -0.37097,-1.481331 -1.187635,-1.481331 -1.084583,0 -1.187633,1.094899 -1.187633,1.481331 0.0026,0.571902 0.175181,1.481299 1.187633,1.481299 z"
           id="path4115"
           style="fill:#ffffff;stroke-width:0.257621" /><path
           class="st6"
           d="m 104.39635,56.372917 h -2.28253 v -3.550028 h 0.4766 v 3.148131 h 1.80593 z"
           id="path4117"
           style="fill:#ffffff;stroke-width:0.257621" /><circle
           cx="69.827682"
           cy="70.813324"
           style="opacity:0.496774;fill:url(#radialGradient5292);fill-opacity:1;stroke-width:0.214332"
           id="circle4197"
           r="42.866287" /></g><text
         xml:space="preserve"
         style="font-size:8.52519px;line-height:1.25;font-family:sans-serif;fill:#666666;fill-opacity:0.812834;stroke-width:0.127877"
         x="48.088459"
         y="88.274452"
         id="text4954-3"><tspan
           sodipodi:role="line"
           style="font-style:normal;font-variant:normal;font-weight:normal;font-stretch:normal;font-family:'Nimbus Sans';-inkscape-font-specification:'Nimbus Sans';fill:#666666;fill-opacity:0.812834;stroke-width:0.127877"
           x="48.088459"
           y="88.274452"
           id="tspan4956-6">devpool.info</tspan></text><text
         xml:space="preserve"
         style="font-size:8.52519px;line-height:1.25;font-family:sans-serif;fill:#ffffff;stroke-width:0.127877"
         x="47.743797"
         y="87.912651"
         id="text4954"><tspan
           sodipodi:role="line"
           style="font-style:normal;font-variant:normal;font-weight:normal;font-stretch:normal;font-family:'Nimbus Sans';-inkscape-font-specification:'Nimbus Sans';fill:#ffffff;stroke-width:0.127877"
           x="47.743797"
           y="87.912651"
           id="tspan4956">devpool.info</tspan></text></g><g
       id="g6080"
       transform="matrix(0.93380422,0,0,0.93380422,2.2295879,9.4463102)"
       inkscape:export-filename="../../../../logo-side2.png"
       inkscape:export-xdpi="508"
       inkscape:export-ydpi="508"><g
         id="g5914"><circle
           style="fill:#ffffff;fill-opacity:1;stroke-width:0.141892"
           id="path5827"
           cx="80.833893"
           cy="196.24701"
           r="53.544415" /><g
           id="Layer_2_1_"
           transform="matrix(0.26458333,0,0,0.26458333,31.224518,150.40795)">
	<g
   id="Layer_1-2">
		<path
   class="st0"
   d="m 102.8,172 c -0.8,13.9 9.9,25.8 23.8,26.6 0.5,0 1,0 1.5,0 14,0 25.3,-11.3 25.2,-25.3 0,-14 -11.3,-25.3 -25.3,-25.2 -13.4,0 -24.5,10.5 -25.2,23.9 z"
   id="path5675" />
		<path
   class="st0"
   d="m 8.6,165.5 c -4.5,-0.3 -8.4,3.2 -8.6,7.7 -0.2,4.5 3.2,8.4 7.7,8.6 4.5,0.3 8.3,-3.2 8.6,-7.7 0.3,-4.5 -3.2,-8.3 -7.7,-8.6 0,0 0,0 0,0 z"
   id="path5677" />
		<path
   class="st0"
   d="m 101.2,25.4 c 4,-2 5.6,-7 3.6,-11 -2,-4 -7,-5.6 -11,-3.6 -4,2 -5.6,6.9 -3.6,10.9 2,4.1 6.9,5.8 11,3.7 -0.1,0 0,0 0,0 z"
   id="path5679" />
		<path
   class="st0"
   d="m 126.8,70.1 c 6.2,-3.1 8.7,-10.7 5.6,-16.9 -3.1,-6.2 -10.7,-8.7 -16.9,-5.6 -6.2,3.1 -8.7,10.7 -5.6,16.9 3.1,6.2 10.7,8.7 16.9,5.6 z"
   id="path5681" />
		<path
   class="st0"
   d="m 40.6,100.8 c 4.8,3.1 11.2,1.8 14.4,-3 3.1,-4.8 1.8,-11.2 -3,-14.4 -4.8,-3.1 -11.2,-1.8 -14.4,3 0,0 0,0 0,0 -3.2,4.8 -1.8,11.3 3,14.4 z"
   id="path5683" />
		<path
   class="st0"
   d="m 55.9,161 c -7,-0.4 -12.9,4.9 -13.3,11.9 -0.4,7 4.9,12.9 11.9,13.3 7,0.4 12.9,-4.9 13.3,-11.9 0,0 0,0 0,0 0.4,-6.9 -4.9,-12.9 -11.9,-13.3 z"
   id="path5685" />
		<path
   class="st0"
   d="m 42,245.7 c -5.1,2.6 -7.2,8.8 -4.6,14 2.6,5.1 8.8,7.2 14,4.6 5.1,-2.6 7.2,-8.8 4.6,-14 0,0 0,0 0,0 -2.6,-5.1 -8.9,-7.2 -14,-4.6 0,0 0,0 0,0 z"
   id="path5687" />
		<path
   class="st0"
   d="m 91,134.9 c 6.9,4.5 16.1,2.6 20.5,-4.3 4.5,-6.9 2.6,-16.1 -4.3,-20.5 -6.9,-4.5 -16.1,-2.6 -20.5,4.3 -4.5,6.8 -2.6,16 4.3,20.5 0,0 0,0 0,0 z"
   id="path5689" />
		<path
   class="st0"
   d="m 246.5,69.1 c 5.8,3.8 13.7,2.2 17.5,-3.6 3.8,-5.8 2.2,-13.7 -3.6,-17.5 -5.8,-3.8 -13.7,-2.2 -17.5,3.6 0,0 0,0 0,0 -3.9,5.9 -2.3,13.7 3.6,17.5 0,0 0,0 0,0 z"
   id="path5691" />
		<path
   class="st0"
   d="m 272.3,24.6 c 3.8,2.5 8.8,1.4 11.3,-2.4 2.5,-3.8 1.4,-8.8 -2.4,-11.3 -3.8,-2.5 -8.8,-1.4 -11.3,2.3 -2.4,3.8 -1.3,8.9 2.4,11.4 0,0 0,0 0,0 z"
   id="path5693" />
		<path
   class="st0"
   d="m 248.4,147.9 c -13.9,-0.8 -25.9,9.9 -26.6,23.8 -0.8,13.9 9.9,25.9 23.8,26.6 0.5,0 1,0 1.4,0 13.9,0 25.2,-11.3 25.2,-25.3 0.1,-13.3 -10.4,-24.4 -23.8,-25.1 z"
   id="path5695" />
		<path
   class="st0"
   d="m 135.1,133.1 c 4.3,8.5 13,13.9 22.6,13.9 13.9,0 25.2,-11.3 25.2,-25.3 0,-3.9 -0.9,-7.8 -2.7,-11.4 -6.3,-12.5 -21.5,-17.5 -33.9,-11.2 -12.5,6.4 -17.5,21.6 -11.2,34 z"
   id="path5697" />
		<path
   class="st0"
   d="m 333,100.8 c 5.1,-2.6 7.1,-8.9 4.5,-14 -2.6,-5.1 -8.9,-7.1 -14,-4.5 -5.1,2.6 -7.1,8.8 -4.6,13.9 2.7,5.1 8.9,7.2 14.1,4.6 0,0 0,0 0,0 z"
   id="path5699" />
		<path
   class="st0"
   d="m 269,108.8 c -7.3,3.7 -10.3,12.6 -6.6,19.9 3.7,7.3 12.6,10.3 19.9,6.6 7.3,-3.7 10.3,-12.6 6.6,-19.9 -3.7,-7.3 -12.6,-10.2 -19.9,-6.6 z"
   id="path5701" />
		<path
   class="st0"
   d="m 186.5,20.8 c 5.7,0.3 10.6,-4.1 11,-9.8 0.4,-5.7 -4.1,-10.6 -9.8,-11 -5.7,-0.3 -10.6,4 -11,9.7 -0.3,5.8 4.1,10.7 9.8,11.1 0,0 0,0 0,0 z"
   id="path5703" />
		<path
   class="st0"
   d="m 186.4,86.1 c 8.2,0.5 15.2,-5.8 15.6,-14 0.5,-8.2 -5.8,-15.2 -14,-15.6 -8.2,-0.5 -15.2,5.8 -15.6,14 -0.4,8.2 5.8,15.2 14,15.6 0,0 0,0 0,0 z"
   id="path5705" />
		<path
   class="st0"
   d="m 106,237.7 c 7.3,-3.7 10.3,-12.6 6.6,-19.9 -3.7,-7.3 -12.6,-10.3 -19.9,-6.6 -7.3,3.7 -10.3,12.6 -6.6,19.9 3.7,7.3 12.6,10.3 19.9,6.6 z"
   id="path5707" />
		<path
   class="st0"
   d="m 196,107.8 c -7.6,11.7 -4.4,27.3 7.3,34.9 11.7,7.6 27.3,4.4 34.9,-7.3 7.6,-11.7 4.4,-27.3 -7.3,-34.9 -4.1,-2.7 -8.9,-4.1 -13.8,-4.1 -8.5,0 -16.4,4.3 -21.1,11.4 z"
   id="path5709" />
		<path
   class="st0"
   d="m 239.9,213.4 c -6.3,-12.5 -21.5,-17.5 -33.9,-11.2 -12.5,6.3 -17.5,21.5 -11.2,33.9 6.3,12.5 21.5,17.5 33.9,11.2 0,0 0,0 0,0 12.4,-6.2 17.5,-21.2 11.3,-33.7 0,-0.1 0,-0.1 -0.1,-0.2 z"
   id="path5711" />
		<path
   class="st0"
   d="m 284,211.6 c -6.9,-4.5 -16.1,-2.6 -20.5,4.3 -4.5,6.9 -2.6,16.1 4.3,20.5 6.9,4.5 16.1,2.6 20.5,-4.3 4.5,-6.8 2.6,-16 -4.3,-20.5 0,0 0,0 0,0 z"
   id="path5713" />
		<path
   class="st0"
   d="m 332.4,173.7 c 0.4,-7 -4.9,-12.9 -11.9,-13.3 -7,-0.4 -12.9,4.9 -13.3,11.9 -0.4,7 4.9,12.9 11.9,13.3 0,0 0,0 0,0 6.9,0.4 12.9,-5 13.3,-11.9 z"
   id="path5715" />
		<path
   class="st0"
   d="m 367.3,164.7 c -4.5,-0.3 -8.4,3.2 -8.6,7.7 -0.2,4.5 3.2,8.4 7.7,8.6 4.5,0.3 8.3,-3.2 8.6,-7.7 0.2,-4.5 -3.2,-8.3 -7.7,-8.6 z"
   id="path5717" />
		<path
   class="st0"
   d="m 334.4,245.7 c -4.8,-3.1 -11.2,-1.8 -14.4,3 -3.1,4.8 -1.8,11.2 3,14.4 4.8,3.1 11.2,1.8 14.4,-3 3.2,-4.8 1.8,-11.3 -3,-14.4 0,0 0,0 0,0 z"
   id="path5719" />
		<path
   class="st0"
   d="m 102.6,321.9 c -3.8,-2.5 -8.8,-1.4 -11.3,2.3 -2.5,3.8 -1.4,8.8 2.3,11.3 3.8,2.5 8.8,1.4 11.3,-2.3 0,0 0,0 0,0 2.6,-3.7 1.5,-8.8 -2.3,-11.3 z"
   id="path5721" />
		<path
   class="st0"
   d="m 273.8,321.1 c -4,2 -5.6,7 -3.6,11 2,4 7,5.6 11,3.6 4,-2 5.6,-6.9 3.6,-10.9 -2,-4.1 -6.9,-5.8 -11,-3.7 0.1,0 0,0 0,0 z"
   id="path5723" />
		<path
   class="st0"
   d="m 179,238.7 c 7.6,-11.7 4.4,-27.3 -7.3,-35 -11.7,-7.6 -27.3,-4.4 -35,7.3 -7.7,11.7 -4.4,27.3 7.3,35 4.1,2.7 8.9,4.1 13.8,4.1 8.6,0.1 16.5,-4.2 21.2,-11.4 z"
   id="path5725" />
		<path
   class="st0"
   d="m 128.5,277.4 c -5.8,-3.8 -13.7,-2.2 -17.5,3.6 -3.8,5.8 -2.2,13.7 3.6,17.5 5.8,3.8 13.7,2.2 17.5,-3.6 0,0 0,0 0,0 3.9,-5.8 2.3,-13.7 -3.6,-17.5 z"
   id="path5727" />
		<path
   class="st0"
   d="m 187.4,325.7 c -5.7,-0.3 -10.6,4.1 -11,9.8 -0.4,5.7 4.1,10.6 9.8,11 5.7,0.3 10.6,-4 11,-9.7 0.3,-5.8 -4.1,-10.7 -9.8,-11.1 0,0 0,0 0,0 z"
   id="path5729" />
		<path
   class="st0"
   d="m 187.5,260.4 c -8.2,-0.5 -15.2,5.8 -15.6,14 -0.5,8.2 5.8,15.2 14,15.6 8.2,0.4 15.2,-5.8 15.6,-14 0.5,-8.1 -5.8,-15.2 -14,-15.6 0,0 0,0 0,0 z"
   id="path5731" />
		<path
   class="st0"
   d="m 248.2,276.4 c -6.2,3.2 -8.7,10.8 -5.5,17 3.2,6.2 10.8,8.7 17,5.5 6.2,-3.1 8.7,-10.7 5.6,-16.9 -3.2,-6.2 -10.8,-8.8 -17.1,-5.6 0,0 0,0 0,0 z"
   id="path5733" />
	</g>
</g></g></g></g><style
     type="text/css"
     id="style5673">
	.st0{fill:#0033AD;}
</style></svg>
